<?xml version="1.0" encoding="utf-8"?>
<!-- Generator: Adobe Illustrator 22.0.1, SVG Export Plug-In . SVG Version: 6.00 Build 0)  -->
<svg version="1.1" id="Capa_1" xmlns="http://www.w3.org/2000/svg" xmlns:xlink="http://www.w3.org/1999/xlink" x="0px" y="0px"
	 viewBox="0 0 295 295" style="enable-background:new 0 0 295 295;" xml:space="preserve">
<style type="text/css">
	.st0{fill:#4ABBD5;}
</style>
<g>
	<path class="st0" d="M286.4,98c-13.2-37.1-40.1-66.8-75.7-83.7C175.1-2.6,135.1-4.6,98,8.7S31.2,48.8,14.3,84.3
		C-2.6,119.9-4.6,159.9,8.6,197c1.1,3.1,4.5,4.7,7.7,3.6c3.1-1.1,4.8-4.5,3.6-7.7C7.8,158.9,9.6,122.2,25.1,89.5S68,32.1,102,20
		s70.8-10.3,103.5,5.2c32.7,15.5,57.4,42.8,69.5,76.9c12.1,34.1,10.3,70.8-5.2,103.5S227,262.9,193,275.1
		c-38.2,13.6-80.1,9.5-114.9-11.3c-2.8-1.7-6.5-0.8-8.2,2.1s-0.8,6.5,2.1,8.2c23.2,13.8,49.3,20.9,75.5,20.9
		c16.7,0,33.4-2.8,49.6-8.6c37.1-13.2,66.8-40.1,83.7-75.7C297.6,175.1,299.6,135.1,286.4,98z"/>
</g>
<g>
	<path class="st0" d="M48.4,85v23H44V93.6L35.4,108h-3.8V85H36v14.9L44.7,85H48.4z"/>
	<path class="st0" d="M54.7,102c1.2,1.6,2.5,2.4,4.1,2.4c1,0,1.9-0.3,2.5-0.9c0.6-0.6,1-1.4,1-2.3c0-0.9-0.3-1.7-0.9-2.4
		c-0.6-0.6-1.9-0.9-3.9-0.9h-0.9V94h0.9c1.2,0,2-0.3,2.6-0.8c0.6-0.5,0.9-1.2,0.9-2.1c0-0.8-0.3-1.5-0.8-2c-0.5-0.5-1.2-0.7-2-0.7
		c-1,0-2,0.5-3,1.5L52.6,87c1.4-1.3,2.5-2,3.5-2.2c0.9-0.2,1.8-0.4,2.6-0.4c1.9,0,3.5,0.5,4.7,1.6c1.3,1.1,1.9,2.6,1.9,4.4
		c0,0.8-0.1,1.6-0.4,2.4c-0.3,0.8-1.1,1.6-2.4,2.5c2.7,1.2,4,3.2,4,6.1c0,2.1-0.7,3.9-2.2,5.1s-3.3,1.9-5.5,1.9
		c-1.4,0-2.7-0.3-3.8-0.8c-1.1-0.5-2.4-1.6-3.7-3.3L54.7,102z"/>
	<path class="st0" d="M81.6,84.4c3.3,0,6,1.2,8.4,3.5c2.3,2.4,3.5,5.2,3.5,8.6c0,3.4-1.2,6.2-3.5,8.5c-2.3,2.3-5.1,3.5-8.4,3.5
		c-3.5,0-6.3-1.2-8.6-3.6c-2.3-2.4-3.4-5.2-3.4-8.5c0-2.2,0.5-4.2,1.6-6.1s2.5-3.3,4.4-4.4S79.4,84.4,81.6,84.4z M81.5,88.7
		c-2.1,0-3.9,0.7-5.4,2.2c-1.4,1.5-2.2,3.4-2.2,5.6c0,2.5,0.9,4.6,2.7,6c1.4,1.2,3,1.7,4.9,1.7c2.1,0,3.8-0.8,5.3-2.3
		s2.2-3.3,2.2-5.5c0-2.2-0.7-4-2.2-5.6S83.6,88.7,81.5,88.7z"/>
	<path class="st0" d="M97.6,108V85h12v4.3h-7.6v4.4h1c1.9,0,3.5,0.2,4.8,0.6c1.2,0.4,2.3,1.2,3.1,2.4c0.8,1.2,1.2,2.6,1.2,4.2
		c0,1.6-0.3,2.9-0.9,3.8c-0.6,1-1.5,1.7-2.5,2.3c-1.1,0.6-2.6,0.9-4.5,0.9H97.6z M101.9,97.6v6.2h1.1c2,0,3.3-0.3,3.8-0.8
		c0.5-0.5,0.8-1.2,0.8-2.1c0-2.2-1.6-3.3-4.8-3.3H101.9z"/>
	<path class="st0" d="M115.8,85h4.6c2.5,0,4.3,0.2,5.4,0.7c1.1,0.5,2,1.2,2.6,2.3c0.6,1,1,2.3,1,3.7c0,1.6-0.4,2.9-1.3,4
		c-0.8,1.1-2,1.8-3.4,2.2c-0.8,0.2-2.4,0.4-4.6,0.4v9.7h-4.4V85z M120.1,94h1.4c1.1,0,1.9-0.1,2.3-0.2c0.4-0.2,0.8-0.4,1-0.8
		c0.2-0.4,0.4-0.8,0.4-1.3c0-0.9-0.3-1.5-1-1.9c-0.5-0.3-1.4-0.5-2.8-0.5h-1.2V94z"/>
	<path class="st0" d="M140.7,85h4.4l8.8,23h-4.5l-1.8-4.7h-9.4l-1.9,4.7h-4.5L140.7,85z M143,91.1l-3.1,7.9h6.1L143,91.1z"/>
	<path class="st0" d="M167.5,97.8l-0.6-0.7l-6.5,10.9h-5.2l8.5-13.3L156,85h5.3l6.2,8.2V85h4.4v8.2l6.2-8.2h5.3l-7.7,9.7l8.5,13.3
		H179l-6.5-10.9l-0.6,0.7V108h-4.4V97.8z"/>
	<path class="st0" d="M187.3,85h12.5v4.3h-8.2v4.2h8.2v4.2h-8.2v6h8.2v4.3h-12.5V85z"/>
	<path class="st0" d="M203.9,85h4.4v8.7h7.7V85h4.4v23H216V97.9h-7.7V108h-4.4V85z"/>
	<path class="st0" d="M242.4,85v23h-4.4V93.6l-8.6,14.4h-3.8V85h4.4v14.9l8.7-14.9H242.4z"/>
	<path class="st0" d="M247.7,85h12.5v4.3H252v4.2h8.2v4.2H252v6h8.2v4.3h-12.5V85z"/>
</g>
<g>
	<path class="st0" d="M73.1,159v-23h3.6c2.1,0,3.6,0.1,4.6,0.4c1.4,0.4,2.5,1,3.3,2c0.8,1,1.2,2.2,1.2,3.5c0,0.9-0.2,1.7-0.6,2.4
		c-0.4,0.7-1,1.4-1.8,2c1.4,0.7,2.4,1.5,3.1,2.5c0.6,1,1,2.1,1,3.5c0,1.3-0.3,2.5-1,3.5c-0.7,1.1-1.5,1.9-2.6,2.4
		c-1.1,0.5-2.5,0.8-4.4,0.8H73.1z M77.5,140.2v4.8h1c1.1,0,1.9-0.2,2.4-0.7c0.5-0.4,0.8-1.1,0.8-1.8c0-0.7-0.2-1.3-0.7-1.7
		s-1.2-0.6-2.2-0.6H77.5z M77.5,148.9v5.9h1.1c1.8,0,3-0.2,3.7-0.7c0.6-0.5,0.9-1.1,0.9-2c0-1-0.4-1.8-1.1-2.3
		c-0.7-0.6-2-0.9-3.7-0.9H77.5z"/>
	<path class="st0" d="M91.7,136h4.6c2.5,0,4.3,0.2,5.4,0.7c1.1,0.5,2,1.2,2.6,2.3c0.6,1,1,2.3,1,3.7c0,1.6-0.4,2.9-1.3,4
		c-0.8,1.1-2,1.8-3.4,2.2c-0.8,0.2-2.4,0.4-4.6,0.4v9.7h-4.4V136z M96,145h1.4c1.1,0,1.9-0.1,2.3-0.2c0.4-0.2,0.8-0.4,1-0.8
		c0.2-0.4,0.4-0.8,0.4-1.3c0-0.9-0.3-1.5-1-1.9c-0.5-0.3-1.4-0.5-2.8-0.5H96V145z"/>
	<path class="st0" d="M109.6,136h12.5v4.3H114v4.2h8.2v4.2H114v6h8.2v4.3h-12.5V136z"/>
	<path class="st0" d="M128.5,136h4.3l5.3,16l5.4-16h4.3l3.9,23h-4.2l-2.5-14.5L140,159h-3.9l-4.8-14.5l-2.5,14.5h-4.3L128.5,136z"/>
	<path class="st0" d="M155.1,136h12.5v4.3h-8.2v4.2h8.2v4.2h-8.2v6h8.2v4.3h-12.5V136z"/>
	<path class="st0" d="M171.7,136h4.4v8.7h7.7V136h4.4v23h-4.4v-10.1h-7.7V159h-4.4V136z"/>
	<path class="st0" d="M193.4,136h4.4v8.7h7.7V136h4.4v23h-4.4v-10.1h-7.7V159h-4.4V136z"/>
	<path class="st0" d="M226.1,135.4c3.3,0,6,1.2,8.4,3.5c2.3,2.4,3.5,5.2,3.5,8.6c0,3.4-1.2,6.2-3.5,8.5c-2.3,2.3-5.1,3.5-8.4,3.5
		c-3.5,0-6.3-1.2-8.6-3.6c-2.3-2.4-3.4-5.2-3.4-8.5c0-2.2,0.5-4.2,1.6-6.1s2.5-3.3,4.4-4.4S223.9,135.4,226.1,135.4z M226,139.7
		c-2.1,0-3.9,0.7-5.4,2.2c-1.4,1.5-2.2,3.4-2.2,5.6c0,2.5,0.9,4.6,2.7,6c1.4,1.2,3,1.7,4.9,1.7c2.1,0,3.8-0.8,5.3-2.3
		c1.5-1.5,2.2-3.3,2.2-5.5c0-2.2-0.7-4-2.2-5.6C229.9,140.5,228.1,139.7,226,139.7z"/>
</g>
<g>
	<path class="st0" d="M60.5,185.9c3.3,0,6,1.2,8.4,3.5c2.3,2.4,3.5,5.2,3.5,8.6c0,3.4-1.2,6.2-3.5,8.5c-2.3,2.3-5.1,3.5-8.4,3.5
		c-3.5,0-6.3-1.2-8.6-3.6c-2.3-2.4-3.4-5.2-3.4-8.5c0-2.2,0.5-4.2,1.6-6.1s2.5-3.3,4.4-4.4S58.3,185.9,60.5,185.9z M60.4,190.2
		c-2.1,0-3.9,0.7-5.4,2.2c-1.4,1.5-2.2,3.4-2.2,5.6c0,2.5,0.9,4.6,2.7,6c1.4,1.2,3,1.7,4.9,1.7c2.1,0,3.8-0.8,5.3-2.3
		s2.2-3.3,2.2-5.5c0-2.2-0.7-4-2.2-5.6S62.5,190.2,60.4,190.2z"/>
	<path class="st0" d="M74.2,186.5h12.7v4.3h-4.2v18.7h-4.4v-18.7h-4.1V186.5z"/>
	<path class="st0" d="M111.1,190.6l-3.1,2.9c-2.1-2.2-4.4-3.3-7-3.3c-2.2,0-4,0.8-5.5,2.3c-1.5,1.5-2.3,3.4-2.3,5.6
		c0,1.5,0.3,2.9,1,4.1c0.7,1.2,1.6,2.1,2.8,2.8s2.6,1,4.1,1c1.3,0,2.4-0.2,3.5-0.7c1.1-0.5,2.2-1.3,3.5-2.6l3,3.1
		c-1.7,1.7-3.3,2.8-4.8,3.4c-1.5,0.6-3.2,1-5.2,1c-3.6,0-6.5-1.1-8.8-3.4c-2.3-2.3-3.4-5.2-3.4-8.7c0-2.3,0.5-4.3,1.6-6.1
		c1-1.8,2.5-3.2,4.5-4.3c1.9-1.1,4-1.6,6.2-1.6c1.9,0,3.7,0.4,5.5,1.2C108.3,187.9,109.8,189.1,111.1,190.6z"/>
	<path class="st0" d="M121.3,204.2l-8.2-17.7h4.9l5.4,12.8l4.4-12.8h4.5l-6.1,16.4c-1.1,2.8-2.2,4.7-3.4,5.6c-1.2,1-2.6,1.4-3.9,1.4
		c-2.3,0-4.4-1.1-6.3-3.3l2.9-2.9c1.1,1.3,2.3,2,3.4,2c0.5,0,0.9-0.1,1.2-0.4C120.5,205.2,120.9,204.8,121.3,204.2z"/>
	<path class="st0" d="M133.1,186.5h12.7v4.3h-4.2v18.7h-4.4v-18.7h-4.1V186.5z"/>
	<path class="st0" d="M170,190.6l-3.1,2.9c-2.1-2.2-4.4-3.3-7-3.3c-2.2,0-4,0.8-5.5,2.3c-1.5,1.5-2.3,3.4-2.3,5.6
		c0,1.5,0.3,2.9,1,4.1c0.7,1.2,1.6,2.1,2.8,2.8c1.2,0.7,2.6,1,4.1,1c1.3,0,2.4-0.2,3.5-0.7c1.1-0.5,2.2-1.3,3.5-2.6l3,3.1
		c-1.7,1.7-3.3,2.8-4.8,3.4c-1.5,0.6-3.2,1-5.2,1c-3.6,0-6.5-1.1-8.8-3.4c-2.3-2.3-3.4-5.2-3.4-8.7c0-2.3,0.5-4.3,1.6-6.1
		c1-1.8,2.5-3.2,4.5-4.3c1.9-1.1,4-1.6,6.2-1.6c1.9,0,3.7,0.4,5.5,1.2C167.2,187.9,168.7,189.1,170,190.6z"/>
	<path class="st0" d="M171.5,186.5h12.7v4.3H180v18.7h-4.4v-18.7h-4.1V186.5z"/>
	<path class="st0" d="M187.2,209.5v-23h3.6c2.1,0,3.6,0.1,4.6,0.4c1.4,0.4,2.5,1,3.3,2c0.8,1,1.2,2.2,1.2,3.5c0,0.9-0.2,1.7-0.6,2.4
		c-0.4,0.7-1,1.4-1.8,2c1.4,0.7,2.4,1.5,3.1,2.5c0.6,1,1,2.1,1,3.5c0,1.3-0.3,2.5-1,3.5c-0.7,1.1-1.5,1.9-2.6,2.4
		c-1.1,0.5-2.5,0.8-4.4,0.8H187.2z M191.6,190.7v4.8h1c1.1,0,1.9-0.2,2.4-0.7c0.5-0.4,0.8-1.1,0.8-1.8c0-0.7-0.2-1.3-0.7-1.7
		s-1.2-0.6-2.2-0.6H191.6z M191.6,199.4v5.9h1.1c1.8,0,3-0.2,3.7-0.7c0.6-0.5,0.9-1.1,0.9-2c0-1-0.4-1.8-1.1-2.3
		c-0.7-0.6-2-0.9-3.7-0.9H191.6z"/>
	<path class="st0" d="M212.2,204.2l-8.2-17.7h4.9l5.4,12.8l4.4-12.8h4.5l-6.1,16.4c-1.1,2.8-2.2,4.7-3.4,5.6c-1.2,1-2.6,1.4-3.9,1.4
		c-2.3,0-4.4-1.1-6.3-3.3l2.9-2.9c1.1,1.3,2.3,2,3.4,2c0.5,0,0.9-0.1,1.2-0.4C211.4,205.2,211.8,204.8,212.2,204.2z"/>
	<path class="st0" d="M226.3,186.5h12.5v4.3h-8.2v4.2h8.2v4.2h-8.2v6h8.2v4.3h-12.5V186.5z"/>
	<path class="st0" d="M240.7,186.5h12.7v4.3h-4.2v18.7h-4.4v-18.7h-4.1V186.5z"/>
</g>
</svg>
