<?xml version="1.0" encoding="utf-8"?>
<!-- Generator: Adobe Illustrator 22.0.1, SVG Export Plug-In . SVG Version: 6.00 Build 0)  -->
<svg version="1.1" id="Capa_1" xmlns="http://www.w3.org/2000/svg" xmlns:xlink="http://www.w3.org/1999/xlink" x="0px" y="0px"
	 viewBox="0 0 450 300" style="enable-background:new 0 0 450 300;" xml:space="preserve">
<style type="text/css">
	.st0{fill:#4ABBD5;}
</style>
<g>
	<path class="st0" d="M363.9,100.5c-13.2-37.1-40.1-66.8-75.7-83.7s-75.6-18.9-112.7-5.6s-66.8,40.1-83.7,75.6
		c-16.9,35.6-18.9,75.6-5.7,112.7c1.1,3.1,4.5,4.7,7.7,3.6c3.1-1.1,4.8-4.5,3.6-7.7c-12.1-34-10.3-70.7,5.2-103.4
		s42.9-57.4,76.9-69.5s70.8-10.3,103.5,5.2s57.4,42.8,69.5,76.9s10.3,70.8-5.2,103.5s-42.8,57.3-76.8,69.5
		c-38.2,13.6-80.1,9.5-114.9-11.3c-2.8-1.7-6.5-0.8-8.2,2.1c-1.7,2.9-0.8,6.5,2.1,8.2c23.2,13.8,49.3,20.9,75.5,20.9
		c16.7,0,33.4-2.8,49.6-8.6c37.1-13.2,66.8-40.1,83.7-75.7C375.1,177.6,377.1,137.6,363.9,100.5z"/>
</g>
<g>
	<path class="st0" d="M125.9,87.5v23h-4.4V96.1l-8.6,14.4h-3.8v-23h4.4v14.9l8.7-14.9H125.9z"/>
	<path class="st0" d="M132.2,104.5c1.2,1.6,2.5,2.4,4.1,2.4c1,0,1.9-0.3,2.5-0.9c0.6-0.6,1-1.4,1-2.3s-0.3-1.7-0.9-2.4
		c-0.6-0.6-1.9-0.9-3.9-0.9h-0.9v-3.9h0.9c1.2,0,2-0.3,2.6-0.8c0.6-0.5,0.9-1.2,0.9-2.1c0-0.8-0.3-1.5-0.8-2s-1.2-0.7-2-0.7
		c-1,0-2,0.5-3,1.5l-2.6-2.9c1.4-1.3,2.5-2,3.5-2.2c0.9-0.2,1.8-0.4,2.6-0.4c1.9,0,3.5,0.5,4.7,1.6c1.3,1.1,1.9,2.6,1.9,4.4
		c0,0.8-0.1,1.6-0.4,2.4s-1.1,1.6-2.4,2.5c2.7,1.2,4,3.2,4,6.1c0,2.1-0.7,3.9-2.2,5.1s-3.3,1.9-5.5,1.9c-1.4,0-2.7-0.3-3.8-0.8
		c-1.1-0.5-2.4-1.6-3.7-3.3L132.2,104.5z"/>
	<path class="st0" d="M159.1,86.9c3.3,0,6,1.2,8.4,3.5c2.3,2.4,3.5,5.2,3.5,8.6s-1.2,6.2-3.5,8.5s-5.1,3.5-8.4,3.5
		c-3.5,0-6.3-1.2-8.6-3.6c-2.3-2.4-3.4-5.2-3.4-8.5c0-2.2,0.5-4.2,1.6-6.1s2.5-3.3,4.4-4.4C155,87.3,156.9,86.9,159.1,86.9z
		 M159,91.2c-2.1,0-3.9,0.7-5.4,2.2c-1.4,1.5-2.2,3.4-2.2,5.6c0,2.5,0.9,4.6,2.7,6c1.4,1.2,3,1.7,4.9,1.7c2.1,0,3.8-0.8,5.3-2.3
		s2.2-3.3,2.2-5.5s-0.7-4-2.2-5.6S161.1,91.2,159,91.2z"/>
	<path class="st0" d="M175.1,110.5v-23h12v4.3h-7.6v4.4h1c1.9,0,3.5,0.2,4.8,0.6c1.2,0.4,2.3,1.2,3.1,2.4c0.8,1.2,1.2,2.6,1.2,4.2
		s-0.3,2.9-0.9,3.8c-0.6,1-1.5,1.7-2.5,2.3c-1.1,0.6-2.6,0.9-4.5,0.9L175.1,110.5L175.1,110.5z M179.4,100.1v6.2h1.1
		c2,0,3.3-0.3,3.8-0.8s0.8-1.2,0.8-2.1c0-2.2-1.6-3.3-4.8-3.3C180.3,100.1,179.4,100.1,179.4,100.1z"/>
	<path class="st0" d="M193.3,87.5h4.6c2.5,0,4.3,0.2,5.4,0.7s2,1.2,2.6,2.3c0.6,1,1,2.3,1,3.7c0,1.6-0.4,2.9-1.3,4
		c-0.8,1.1-2,1.8-3.4,2.2c-0.8,0.2-2.4,0.4-4.6,0.4v9.7h-4.4L193.3,87.5L193.3,87.5z M197.6,96.5h1.4c1.1,0,1.9-0.1,2.3-0.2
		c0.4-0.2,0.8-0.4,1-0.8s0.4-0.8,0.4-1.3c0-0.9-0.3-1.5-1-1.9c-0.5-0.3-1.4-0.5-2.8-0.5h-1.2v4.7H197.6z"/>
	<path class="st0" d="M218.2,87.5h4.4l8.8,23h-4.5l-1.8-4.7h-9.4l-1.9,4.7h-4.5L218.2,87.5z M220.5,93.6l-3.1,7.9h6.1L220.5,93.6z"
		/>
	<path class="st0" d="M245,100.3l-0.6-0.7l-6.5,10.9h-5.2l8.5-13.3l-7.7-9.7h5.3l6.2,8.2v-8.2h4.4v8.2l6.2-8.2h5.3l-7.7,9.7
		l8.5,13.3h-5.2L250,99.6l-0.6,0.7v10.2H245V100.3z"/>
	<path class="st0" d="M264.8,87.5h12.5v4.3h-8.2V96h8.2v4.2h-8.2v6h8.2v4.3h-12.5V87.5z"/>
	<path class="st0" d="M281.4,87.5h4.4v8.7h7.7v-8.7h4.4v23h-4.4v-10.1h-7.7v10.1h-4.4L281.4,87.5L281.4,87.5z"/>
	<path class="st0" d="M319.9,87.5v23h-4.4V96.1l-8.6,14.4h-3.8v-23h4.4v14.9l8.7-14.9H319.9z"/>
	<path class="st0" d="M325.2,87.5h12.5v4.3h-8.2V96h8.2v4.2h-8.2v6h8.2v4.3h-12.5V87.5L325.2,87.5z"/>
</g>
<g>
	<path class="st0" d="M150.6,161.5v-23h3.6c2.1,0,3.6,0.1,4.6,0.4c1.4,0.4,2.5,1,3.3,2c0.8,1,1.2,2.2,1.2,3.5c0,0.9-0.2,1.7-0.6,2.4
		s-1,1.4-1.8,2c1.4,0.7,2.4,1.5,3.1,2.5c0.6,1,1,2.1,1,3.5c0,1.3-0.3,2.5-1,3.5c-0.7,1.1-1.5,1.9-2.6,2.4s-2.5,0.8-4.4,0.8
		L150.6,161.5L150.6,161.5z M155,142.7v4.8h1c1.1,0,1.9-0.2,2.4-0.7c0.5-0.4,0.8-1.1,0.8-1.8s-0.2-1.3-0.7-1.7s-1.2-0.6-2.2-0.6H155
		z M155,151.4v5.9h1.1c1.8,0,3-0.2,3.7-0.7c0.6-0.5,0.9-1.1,0.9-2c0-1-0.4-1.8-1.1-2.3c-0.7-0.6-2-0.9-3.7-0.9H155z"/>
	<path class="st0" d="M169.2,138.5h4.6c2.5,0,4.3,0.2,5.4,0.7s2,1.2,2.6,2.3c0.6,1,1,2.3,1,3.7c0,1.6-0.4,2.9-1.3,4
		c-0.8,1.1-2,1.8-3.4,2.2c-0.8,0.2-2.4,0.4-4.6,0.4v9.7h-4.4v-23H169.2z M173.5,147.5h1.4c1.1,0,1.9-0.1,2.3-0.2
		c0.4-0.2,0.8-0.4,1-0.8c0.2-0.4,0.4-0.8,0.4-1.3c0-0.9-0.3-1.5-1-1.9c-0.5-0.3-1.4-0.5-2.8-0.5h-1.3V147.5z"/>
	<path class="st0" d="M187.1,138.5h12.5v4.3h-8.1v4.2h8.2v4.2h-8.2v6h8.2v4.3h-12.5L187.1,138.5L187.1,138.5z"/>
	<path class="st0" d="M206,138.5h4.3l5.3,16l5.4-16h4.3l3.9,23H225l-2.5-14.5l-5,14.5h-3.9l-4.8-14.5l-2.5,14.5H202L206,138.5z"/>
	<path class="st0" d="M232.6,138.5h12.5v4.3h-8.2v4.2h8.2v4.2h-8.2v6h8.2v4.3h-12.5V138.5z"/>
	<path class="st0" d="M249.2,138.5h4.4v8.7h7.7v-8.7h4.4v23h-4.4v-10.1h-7.7v10.1h-4.4V138.5z"/>
	<path class="st0" d="M270.9,138.5h4.4v8.7h7.7v-8.7h4.4v23H283v-10.1h-7.7v10.1h-4.4V138.5z"/>
	<path class="st0" d="M303.6,137.9c3.3,0,6,1.2,8.4,3.5c2.3,2.4,3.5,5.2,3.5,8.6c0,3.4-1.2,6.2-3.5,8.5s-5.1,3.5-8.4,3.5
		c-3.5,0-6.3-1.2-8.6-3.6c-2.3-2.4-3.4-5.2-3.4-8.5c0-2.2,0.5-4.2,1.6-6.1s2.5-3.3,4.4-4.4S301.4,137.9,303.6,137.9z M303.5,142.2
		c-2.1,0-3.9,0.7-5.4,2.2c-1.4,1.5-2.2,3.4-2.2,5.6c0,2.5,0.9,4.6,2.7,6c1.4,1.2,3,1.7,4.9,1.7c2.1,0,3.8-0.8,5.3-2.3
		s2.2-3.3,2.2-5.5s-0.7-4-2.2-5.6C307.4,143,305.6,142.2,303.5,142.2z"/>
</g>
<g>
	<path class="st0" d="M138,188.4c3.3,0,6,1.2,8.4,3.5c2.3,2.4,3.5,5.2,3.5,8.6c0,3.4-1.2,6.2-3.5,8.5c-2.3,2.3-5.1,3.5-8.4,3.5
		c-3.5,0-6.3-1.2-8.6-3.6c-2.3-2.4-3.4-5.2-3.4-8.5c0-2.2,0.5-4.2,1.6-6.1s2.5-3.3,4.4-4.4S135.8,188.4,138,188.4z M137.9,192.7
		c-2.1,0-3.9,0.7-5.4,2.2c-1.4,1.5-2.2,3.4-2.2,5.6c0,2.5,0.9,4.6,2.7,6c1.4,1.2,3,1.7,4.9,1.7c2.1,0,3.8-0.8,5.3-2.3
		s2.2-3.3,2.2-5.5s-0.7-4-2.2-5.6S140,192.7,137.9,192.7z"/>
	<path class="st0" d="M151.7,189h12.7v4.3h-4.2V212h-4.4v-18.7h-4.1V189z"/>
	<path class="st0" d="M188.6,193.1l-3.1,2.9c-2.1-2.2-4.4-3.3-7-3.3c-2.2,0-4,0.8-5.5,2.3s-2.3,3.4-2.3,5.6c0,1.5,0.3,2.9,1,4.1
		c0.7,1.2,1.6,2.1,2.8,2.8s2.6,1,4.1,1c1.3,0,2.4-0.2,3.5-0.7c1.1-0.5,2.2-1.3,3.5-2.6l3,3.1c-1.7,1.7-3.3,2.8-4.8,3.4
		c-1.5,0.6-3.2,1-5.2,1c-3.6,0-6.5-1.1-8.8-3.4c-2.3-2.3-3.4-5.2-3.4-8.7c0-2.3,0.5-4.3,1.6-6.1c1-1.8,2.5-3.2,4.5-4.3
		c1.9-1.1,4-1.6,6.2-1.6c1.9,0,3.7,0.4,5.5,1.2C185.8,190.4,187.3,191.6,188.6,193.1z"/>
	<path class="st0" d="M198.8,206.7l-8.2-17.7h4.9l5.4,12.8l4.4-12.8h4.5l-6.1,16.4c-1.1,2.8-2.2,4.7-3.4,5.6c-1.2,1-2.6,1.4-3.9,1.4
		c-2.3,0-4.4-1.1-6.3-3.3l2.9-2.9c1.1,1.3,2.3,2,3.4,2c0.5,0,0.9-0.1,1.2-0.4C198,207.7,198.4,207.3,198.8,206.7z"/>
	<path class="st0" d="M210.6,189h12.7v4.3h-4.2V212h-4.4v-18.7h-4.1V189z"/>
	<path class="st0" d="M247.5,193.1l-3.1,2.9c-2.1-2.2-4.4-3.3-7-3.3c-2.2,0-4,0.8-5.5,2.3s-2.3,3.4-2.3,5.6c0,1.5,0.3,2.9,1,4.1
		c0.7,1.2,1.6,2.1,2.8,2.8s2.6,1,4.1,1c1.3,0,2.4-0.2,3.5-0.7s2.2-1.3,3.5-2.6l3,3.1c-1.7,1.7-3.3,2.8-4.8,3.4c-1.5,0.6-3.2,1-5.2,1
		c-3.6,0-6.5-1.1-8.8-3.4c-2.3-2.3-3.4-5.2-3.4-8.7c0-2.3,0.5-4.3,1.6-6.1c1-1.8,2.5-3.2,4.5-4.3c1.9-1.1,4-1.6,6.2-1.6
		c1.9,0,3.7,0.4,5.5,1.2C244.7,190.4,246.2,191.6,247.5,193.1z"/>
	<path class="st0" d="M249,189h12.7v4.3h-4.2V212h-4.4v-18.7H249V189z"/>
	<path class="st0" d="M264.7,212v-23h3.6c2.1,0,3.6,0.1,4.6,0.4c1.4,0.4,2.5,1,3.3,2s1.2,2.2,1.2,3.5c0,0.9-0.2,1.7-0.6,2.4
		c-0.4,0.7-1,1.4-1.8,2c1.4,0.7,2.4,1.5,3.1,2.5c0.6,1,1,2.1,1,3.5c0,1.3-0.3,2.5-1,3.5c-0.7,1.1-1.5,1.9-2.6,2.4s-2.5,0.8-4.4,0.8
		L264.7,212L264.7,212z M269.1,193.2v4.8h1c1.1,0,1.9-0.2,2.4-0.7c0.5-0.4,0.8-1.1,0.8-1.8s-0.2-1.3-0.7-1.7s-1.2-0.6-2.2-0.6H269.1
		z M269.1,201.9v5.9h1.1c1.8,0,3-0.2,3.7-0.7c0.6-0.5,0.9-1.1,0.9-2c0-1-0.4-1.8-1.1-2.3c-0.7-0.6-2-0.9-3.7-0.9H269.1z"/>
	<path class="st0" d="M289.7,206.7l-8.2-17.7h4.9l5.4,12.8l4.4-12.8h4.5l-6.1,16.4c-1.1,2.8-2.2,4.7-3.4,5.6c-1.2,1-2.6,1.4-3.9,1.4
		c-2.3,0-4.4-1.1-6.3-3.3l2.9-2.9c1.1,1.3,2.3,2,3.4,2c0.5,0,0.9-0.1,1.2-0.4C288.9,207.7,289.3,207.3,289.7,206.7z"/>
	<path class="st0" d="M303.8,189h12.5v4.3h-8.2v4.2h8.2v4.2h-8.2v6h8.2v4.3h-12.5V189z"/>
	<path class="st0" d="M318.2,189h12.7v4.3h-4.2V212h-4.4v-18.7h-4.1V189z"/>
</g>
</svg>
