<?xml version="1.0" encoding="utf-8"?>
<!-- Generator: Adobe Illustrator 22.0.1, SVG Export Plug-In . SVG Version: 6.00 Build 0)  -->
<svg version="1.1" id="Слой_1" xmlns="http://www.w3.org/2000/svg" xmlns:xlink="http://www.w3.org/1999/xlink" x="0px" y="0px"
	 viewBox="0 0 599.9 479" style="enable-background:new 0 0 599.9 479;" xml:space="preserve">
<path d="M239.1,479c65.7,0.2,128.5-26.8,173.6-74.6c2.2-2.4,2.8-5.8,1.5-8.8c-1.3-3-4.3-4.9-7.5-4.7l-1.7,0.1
	c-2,0.1-4.1,0.1-6.1,0.1c-89.4,0-170.2-53.2-205.5-135.4c-35.3-82.2-18.2-177.4,43.5-242.2c2.2-2.4,2.8-5.8,1.5-8.8
	c-1.3-3-4.3-4.9-7.6-4.7C100.6,5.3-1.4,113.4,0.8,243.6C3.1,373.7,108.9,478.3,239.1,479z M212.1,17.4
	c-56.5,70.2-68.8,166.2-31.8,248.4c37,82.2,116.9,136.7,207,141c-40.8,36.4-93.5,56.4-148.2,56.2c-118.2-0.1-215.8-92.2-223-210.1
	C9,135,94.8,31.8,212.1,17.4z"/>
<path d="M70.6,154.9l-14.5-6.7C6.8,255,62.4,336.4,64.8,339.8l13.1-9.2C46,277.1,43.2,211,70.6,154.9z"/>
<path d="M72.7,123.2l16-24l13.3,8.9l-16,24L72.7,123.2z"/>
<path d="M247.1,431.1h16v16h-16V431.1z"/>
<path d="M215.1,391.1h16v16h-16V391.1z"/>
<path d="M199.1,423.1h16v16h-16V423.1z"/>
<g>
	<path d="M263.5,136.1l-0.3,27.4c-0.2,17.7-2.8,30.3-7.7,38S243,213,232.6,213h-4.5v-14h2.4c5.7-0.5,9.5-3.1,11.4-8
		c1.9-4.9,3-14.1,3.1-27.5l0.3-28.6l-9.6-1.9v-11h71.6h9.8v11l-9.8,1.9v65.3l9.8,1.9V213h-37.7v-10.9l9.8-1.9v-64.1H263.5z"/>
	<path d="M407.1,133l-8.9,1.2l-25.9,61.6c-2.7,6-5.8,10.5-9.4,13.8c-3.6,3.2-8.7,4.8-15.4,4.8c-1,0-2.2,0-3.5-0.1s-2.3-0.1-3-0.2
		l-0.1-13.9c0.5,0.1,1.3,0.1,2.4,0.2c1.1,0,2,0.1,2.6,0.1c3.3,0,5.8-0.7,7.4-2.2c1.6-1.5,3-3.7,4.2-6.6l1.4-3.4l-26.1-53.8L323,133
		v-11h33.4v11l-4.6,0.9l13.2,28.6l1.4,4.8h0.4l12.6-33.2L374,133v-11h33.1V133z"/>
	<path d="M411.9,133v-11h37.7v11l-9.8,1.9v26.3H477v-26.3l-9.8-1.9v-11h9.8h18.2h9.8v11l-9.8,1.9v65.3l9.8,1.9V213h-37.7v-10.9
		l9.8-1.9v-25h-37.1v25l9.8,1.9V213h-37.7v-10.9l9.7-1.9v-65.3L411.9,133z"/>
	<path d="M511,202.1l6.5-0.9l27.7-79.1h18.7l27.5,79.1l6.5,0.9V213h-31v-10.9l6.3-1.1l-4-12.5h-29.5l-4,12.5l6.3,1.1V213h-31V202.1z
		 M544,175h20.9l-10.3-32.1h-0.4L544,175z"/>
</g>
<g>
	<path d="M225.5,273.9l5.7-0.5v-30.9l-5.7-0.5V239h40.4v3.1l-5.7,0.5v30.9l5.7,0.5v3.1h-15.7v-3.1l5.7-0.5v-30.9h-20.5v30.9l5.7,0.5
		v3.1h-15.6V273.9z"/>
	<path d="M289.4,239v3.1l-5.7,0.5V270l0.2,0l20.3-31h4.2h5.7v3.1l-5.7,0.5v30.9l5.7,0.5v3.1h-15.7v-3.1l5.7-0.5V246l-0.2-0.1
		L283.7,277h-9.9v-3.1l5.7-0.5v-30.9l-5.7-0.5V239h9.9H289.4z"/>
	<path d="M355.7,273.4h4.4l-0.3,14.8H356V277H321v-3.1l5.7-0.5v-30.9l-5.7-0.5V239h5.7h4.2h5.7v3.1l-5.7,0.5v30.9h20.5v-30.9
		l-5.7-0.5V239h9.9V273.4z M361.4,239v3.1l-5.7,0.5V239H361.4z"/>
	<path d="M402.7,273.4h4.4l-0.3,14.8H403V277h-34.9v-3.1l5.7-0.5v-30.9l-5.7-0.5V239h5.7h4.2h5.7v3.1l-5.7,0.5v30.9h20.5v-30.9
		l-5.7-0.5V239h9.9V273.4z M408.5,239v3.1l-5.7,0.5V239H408.5z"/>
	<path d="M442.3,277c-0.3-1.3-0.5-2.4-0.6-3.3s-0.2-1.9-0.2-2.8c-1.4,2-3.3,3.6-5.6,5s-5,2-7.9,2c-3.7,0-6.6-1-8.6-2.9
		s-3.1-4.5-3.1-7.8c0-3.5,1.5-6.3,4.5-8.4s7.1-3.1,12.3-3.1h8.4v-5c0-2.7-0.9-4.9-2.6-6.4s-4.2-2.3-7.3-2.3c-2.1,0-4,0.3-5.8,0.9
		s-3.2,1.4-4.4,2.3l-0.4,5.1h-3.5l0-7.3c1.8-1.4,3.9-2.5,6.3-3.3s5.1-1.3,7.8-1.3c4.2,0,7.6,1.1,10.1,3.2c2.6,2.1,3.8,5.2,3.8,9.2
		v18.7c0,0.8,0,1.5,0.1,2.2s0.1,1.4,0.2,2.1l3.8,0.2v3.1H442.3z M428.5,274c3,0,5.7-0.7,8.1-2.1s4-3.2,5-5.4v-7.6h-8.5
		c-3.8,0-6.9,0.8-9.2,2.4s-3.4,3.6-3.4,6c0,2,0.7,3.7,2.1,4.9S426,274,428.5,274z"/>
	<path d="M474.6,257h-16.8v-3.6h16.8V257z"/>
	<path d="M501.4,241.5c4.9,0,8.8,1.6,11.8,4.8s4.4,7.3,4.4,12.2v1.2c0,5.3-1.5,9.6-4.6,13s-7.1,5.1-12.2,5.1
		c-5.1,0-9.2-1.7-12.2-5.1s-4.6-7.7-4.6-13v-5.5c0-7.4,1.5-13.3,4.6-17.7s7.2-7.1,12.5-8c3.5-0.5,6-1.3,7.5-2.1
		c1.5-0.9,2.2-2.2,2.2-3.9h3.3l0.1,0.2c0.1,3.2-0.9,5.4-2.9,6.8c-2.1,1.3-5.1,2.3-9.3,2.8c-3.6,0.4-6.7,2-9.2,4.6
		c-2.5,2.6-4,6.2-4.5,10.7l0.1,0.2c1.4-1.9,3.2-3.3,5.5-4.5S498.6,241.5,501.4,241.5z M500.8,245c-3.9,0-7,1.3-9.2,3.9
		s-3.3,5.8-3.3,9.5v1.2c0,4.1,1.1,7.5,3.3,10.3s5.3,4.2,9.3,4.2c3.9,0,7-1.4,9.2-4.2s3.4-6.2,3.4-10.3v-1.2c0-3.8-1.1-6.9-3.4-9.5
		S504.7,245,500.8,245z"/>
	<path d="M550.8,277c-0.3-1.3-0.5-2.4-0.6-3.3s-0.2-1.9-0.2-2.8c-1.4,2-3.3,3.6-5.6,5s-5,2-7.9,2c-3.7,0-6.6-1-8.6-2.9
		s-3.1-4.5-3.1-7.8c0-3.5,1.5-6.3,4.5-8.4s7.1-3.1,12.3-3.1h8.4v-5c0-2.7-0.9-4.9-2.6-6.4s-4.2-2.3-7.3-2.3c-2.1,0-4,0.3-5.8,0.9
		s-3.2,1.4-4.4,2.3l-0.4,5.1h-3.5l0-7.3c1.8-1.4,3.9-2.5,6.3-3.3s5.1-1.3,7.8-1.3c4.2,0,7.6,1.1,10.1,3.2c2.6,2.1,3.8,5.2,3.8,9.2
		v18.7c0,0.8,0,1.5,0.1,2.2s0.1,1.4,0.2,2.1l3.8,0.2v3.1H550.8z M536.9,274c3,0,5.7-0.7,8.1-2.1s4-3.2,5-5.4v-7.6h-8.5
		c-3.8,0-6.9,0.8-9.2,2.4s-3.4,3.6-3.4,6c0,2,0.7,3.7,2.1,4.9S534.4,274,536.9,274z"/>
	<path d="M563.1,242.1V239h9.2l0.5,5.9c1.3-2.1,2.9-3.7,4.9-4.9c2-1.1,4.4-1.7,7-1.7c4.6,0,8.1,1.8,10.7,5.5s3.9,8.5,3.9,14.6v0.7
		c0,5.7-1.3,10.2-3.9,13.6s-6.1,5.1-10.7,5.1c-2.7,0-5-0.5-7-1.5s-3.6-2.5-4.9-4.3V288l5.7,0.5v3.1h-15.6v-3.1l5.7-0.5v-45.5
		L563.1,242.1z M595.3,258.3c0-4.8-1-8.8-2.9-11.8s-4.7-4.6-8.4-4.6c-2.8,0-5.1,0.7-6.9,2s-3.1,3.1-4,5.3v18.3
		c1,2.1,2.3,3.7,4.2,4.9s4.1,1.8,6.8,1.8c3.7,0,6.5-1.4,8.4-4.1s2.9-6.4,2.9-11V258.3z"/>
</g>
</svg>
